<svg width="730" height="216" viewBox="0 0 730 216" fill="none" xmlns="http://www.w3.org/2000/svg">
    <path d="M0 149.46L34.08 81.99L0 27.52V149.46Z" fill="black"/>
    <path d="M15.47 216L100 138.25L45.96 161.54L15.47 216Z" fill="#333333"/>
    <path d="M82.01 0L0.709961 157.3L53.62 130.48L99.38 75.13L82.01 0Z" fill="#333333"/>
    <path d="M53.62 130.48L0.709961 157.3L45.96 161.54L100 138.25L53.62 130.48Z" fill="black"/>
    <path d="M215.09 85.6899C214.125 84.8009 213.054 84.0351 211.9 83.4099C209.695 82.1043 207.411 80.9386 205.06 79.9199C202.141 78.64 199.133 77.5738 196.06 76.7299C192.896 75.8251 189.621 75.364 186.33 75.3599C177.41 75.3599 172.95 78.3599 172.95 84.3599C172.89 86.002 173.403 87.6139 174.4 88.9199C175.57 90.2946 177.019 91.4057 178.65 92.1799C180.915 93.2944 183.282 94.1853 185.72 94.8399C188.573 95.6133 191.877 96.5166 195.63 97.5499C200.382 98.8264 205.056 100.376 209.63 102.19C213.467 103.676 217.034 105.78 220.19 108.42C223.067 110.88 225.353 113.956 226.88 117.42C228.543 121.467 229.343 125.816 229.23 130.19C229.23 136.27 228.09 141.413 225.81 145.62C223.665 149.682 220.579 153.173 216.81 155.8C212.891 158.462 208.509 160.368 203.89 161.42C198.96 162.596 193.908 163.184 188.84 163.17C184.77 163.163 180.706 162.858 176.68 162.26C172.569 161.662 168.505 160.774 164.52 159.6C160.595 158.468 156.747 157.085 153 155.46C149.417 153.901 145.983 152.02 142.74 149.84L153.68 128.1C154.88 129.214 156.205 130.184 157.63 130.99C160.277 132.626 163.049 134.051 165.92 135.25C169.494 136.768 173.169 138.035 176.92 139.04C180.928 140.154 185.07 140.719 189.23 140.72C198.043 140.72 202.45 138.033 202.45 132.66C202.474 131.734 202.309 130.814 201.965 129.954C201.621 129.094 201.106 128.314 200.45 127.66C198.847 126.155 196.992 124.943 194.97 124.08C192.288 122.877 189.52 121.875 186.69 121.08C183.503 120.173 180.033 119.173 176.28 118.08C171.853 116.766 167.534 115.115 163.36 113.14C160.047 111.587 157.007 109.507 154.36 106.98C152.029 104.729 150.214 102 149.04 98.9799C147.817 95.5687 147.228 91.9629 147.3 88.3399C147.202 83.1617 148.293 78.0301 150.49 73.3399C152.542 69.0868 155.497 65.3328 159.15 62.3399C162.905 59.2902 167.214 56.9948 171.84 55.5799C176.786 54.0407 181.94 53.2717 187.12 53.2999C190.845 53.296 194.563 53.6509 198.22 54.3599C201.766 55.0156 205.267 55.8974 208.7 56.9999C211.898 58.0594 215.022 59.3322 218.05 60.8099C220.937 62.2299 223.603 63.6466 226.05 65.0599L215.09 85.6899Z" fill="#333333"/>
    <path d="M243.81 162V54.08H289.87C294.79 54.0228 299.656 55.1151 304.08 57.27C308.281 59.3197 312.05 62.1579 315.18 65.63C318.269 69.0787 320.735 73.0375 322.47 77.33C324.213 81.5236 325.117 86.0185 325.13 90.56C325.147 95.2351 324.3 99.8731 322.63 104.24C321 108.52 318.63 112.48 315.63 115.94C312.62 119.402 308.921 122.198 304.77 124.15C300.342 126.201 295.509 127.227 290.63 127.15H268.74V162H243.81ZM268.74 105.45H289.11C290.583 105.441 292.035 105.093 293.352 104.435C294.67 103.776 295.819 102.823 296.71 101.65C298.837 99.1167 299.9 95.42 299.9 90.56C299.945 88.3387 299.607 86.1262 298.9 84.02C298.325 82.3386 297.42 80.7884 296.24 79.46C295.194 78.2941 293.894 77.384 292.44 76.8C291.089 76.2726 289.651 76.0013 288.2 76H268.74V105.45Z" fill="#333333"/>
    <path d="M361 54.08H383.5L422.87 162H397.33L389 137.83H355.38L347.17 162H321.64L361 54.08ZM384.87 120.65L372.25 82.5L359.33 120.65H384.87Z" fill="#333333"/>
    <path d="M433.51 162V54.08H482.15C487.021 54.0347 491.835 55.127 496.21 57.27C500.423 59.334 504.212 62.1696 507.38 65.63C510.511 69.0624 513.006 73.0241 514.75 77.33C516.489 81.525 517.392 86.0189 517.41 90.56C517.454 97.0096 515.831 103.361 512.7 109C509.692 114.435 505.215 118.912 499.78 121.92L523.49 162H495.37L474.7 127.19H458.44V162H433.51ZM458.44 105.45H481.24C484.17 105.45 486.71 104.06 488.84 101.27C491.057 98.1518 492.169 94.3823 492 90.56C492 86.1 490.783 82.5533 488.35 79.92C485.92 77.28 483.28 75.92 480.45 75.92H458.45L458.44 105.45Z" fill="#333333"/>
    <path d="M529.12 107.12C529.145 100.496 530.379 93.9315 532.76 87.75C535.163 81.3655 538.776 75.505 543.4 70.49C548.209 65.3164 553.984 61.1344 560.4 58.18C567.557 54.9395 575.345 53.3307 583.2 53.47C593.327 53.47 602.117 55.6467 609.57 60C616.631 63.9555 622.407 69.8562 626.21 77L607.09 90.41C606.015 87.7779 604.443 85.3775 602.46 83.34C598.919 79.7665 594.393 77.3294 589.46 76.34C587.208 75.8878 584.917 75.6567 582.62 75.65C578.29 75.5509 574.004 76.5449 570.16 78.54C566.724 80.3734 563.718 82.9163 561.34 86C558.986 89.0898 557.232 92.5937 556.17 96.33C555.069 100.122 554.507 104.051 554.5 108C554.495 112.185 555.171 116.342 556.5 120.31C557.737 124.128 559.67 127.685 562.2 130.8C564.656 133.816 567.723 136.277 571.2 138.02C574.86 139.828 578.898 140.74 582.98 140.68C585.311 140.668 587.634 140.386 589.9 139.84C592.283 139.284 594.583 138.416 596.74 137.26C598.963 136.058 600.986 134.52 602.74 132.7C604.647 130.703 606.145 128.352 607.15 125.78L627.52 137.78C625.864 141.782 623.407 145.403 620.3 148.42C617.059 151.6 613.349 154.265 609.3 156.32C600.961 160.556 591.752 162.795 582.4 162.86C574.957 162.941 567.596 161.301 560.89 158.07C554.491 154.985 548.759 150.673 544.02 145.38C539.29 140.121 535.562 134.041 533.02 127.44C530.472 120.967 529.149 114.077 529.12 107.12Z" fill="#333333"/>
    <path d="M704.67 85.69C703.709 84.7957 702.637 84.0294 701.48 83.41C699.278 82.1003 696.993 80.9345 694.64 79.92C691.723 78.6369 688.714 77.5706 685.64 76.73C682.505 75.8318 679.261 75.3707 676 75.36C667.08 75.36 662.62 78.36 662.62 84.36C662.552 85.9829 663.039 87.5806 664 88.89C665.174 90.2649 666.626 91.3759 668.26 92.15C670.524 93.2661 672.892 94.1571 675.33 94.81C678.157 95.63 681.45 96.5434 685.21 97.55C689.963 98.8245 694.637 100.374 699.21 102.19C703.051 103.673 706.622 105.778 709.78 108.42C712.651 110.884 714.933 113.959 716.46 117.42C718.127 121.466 718.931 125.815 718.82 130.19C718.82 136.27 717.68 141.413 715.4 145.62C713.251 149.68 710.166 153.17 706.4 155.8C702.481 158.462 698.099 160.368 693.48 161.42C688.566 162.592 683.531 163.179 678.48 163.17C674.41 163.163 670.346 162.859 666.32 162.26C662.209 161.664 658.145 160.775 654.16 159.6C650.249 158.451 646.414 157.055 642.68 155.42C639.097 153.861 635.663 151.98 632.42 149.8L643.37 128.06C644.585 129.177 645.928 130.147 647.37 130.95C650.014 132.585 652.783 134.009 655.65 135.21C659.224 136.727 662.9 137.993 666.65 139C670.659 140.114 674.8 140.679 678.96 140.68C687.78 140.68 692.19 137.993 692.19 132.62C692.216 131.694 692.053 130.773 691.709 129.913C691.365 129.053 690.848 128.272 690.19 127.62C688.591 126.115 686.739 124.903 684.72 124.04C682.038 122.837 679.27 121.835 676.44 121.04C673.24 120.133 669.767 119.133 666.02 118.04C661.561 116.739 657.208 115.098 653 113.13C649.687 111.575 646.648 109.495 644 106.97C641.666 104.722 639.851 101.992 638.68 98.97C637.449 95.5607 636.856 91.954 636.93 88.33C636.837 83.1523 637.928 78.0218 640.12 73.33C642.176 69.0765 645.134 65.3225 648.79 62.33C652.545 59.2803 656.854 56.9849 661.48 55.57C666.426 54.0293 671.58 53.2602 676.76 53.29C680.482 53.2867 684.196 53.6417 687.85 54.35C691.383 55.0098 694.87 55.8949 698.29 57C701.488 58.0614 704.611 59.3342 707.64 60.81C710.527 62.23 713.193 63.6467 715.64 65.06L704.67 85.69Z" fill="#333333"/>
</svg>
